<?xml version="1.0" encoding="utf-8"?>
<svg version="1.1" xmlns:xlink="http://www.w3.org/1999/xlink" width="10px" height="10px" xmlns="http://www.w3.org/2000/svg">
  <g transform="matrix(1 0 0 1 -876 -557 )">
    <path d="M 9.8997995991984 1.03092783505155  C 9.96659986639947 1.14547537227949  10 1.27720504009164  10 1.42611683848797  C 10 1.57502863688431  9.96659986639947 1.70675830469645  9.8997995991984 1.8213058419244  L 5.23046092184369 9.82817869415807  C 5.16366065464262 9.94272623138602  5.08684034736139 10  5 10  C 4.91315965263861 10  4.83633934535738 9.94272623138602  4.76953907815631 9.82817869415807  L 0.100200400801603 1.8213058419244  C 0.0334001336005345 1.70675830469645  0 1.57502863688431  0 1.42611683848797  C 0 1.27720504009164  0.0334001336005345 1.14547537227949  0.100200400801603 1.03092783505155  L 0.601202404809619 0.171821305841925  C 0.668002672010688 0.0572737686139735  0.744822979291917 0  0.831663326653307 0  C 0.918503674014696 0  0.995323981295925 0.0572737686139735  1.06212424849699 0.171821305841925  L 5 6.92439862542955  L 8.93787575150301 0.171821305841925  C 9.00467601870407 0.0572737686139735  9.0814963259853 0  9.16833667334669 0  C 9.25517702070808 0  9.33199732798931 0.0572737686139735  9.39879759519038 0.171821305841925  L 9.8997995991984 1.03092783505155  Z " fill-rule="nonzero" fill="#333333" stroke="none" transform="matrix(1 0 0 1 876 557 )" />
  </g>
</svg>