<?xml version="1.0" encoding="utf-8"?>
<svg version="1.1" xmlns:xlink="http://www.w3.org/1999/xlink" width="10px" height="10px" xmlns="http://www.w3.org/2000/svg">
  <g transform="matrix(1 0 0 1 -876 -542 )">
    <path d="M 9.8997995991984 8.1786941580756  C 9.96659986639947 8.29324169530355  10 8.42497136311569  10 8.57388316151203  C 10 8.72279495990836  9.96659986639947 8.8545246277205  9.8997995991984 8.96907216494845  L 9.39879759519038 9.82817869415807  C 9.33199732798931 9.94272623138602  9.25517702070808 10  9.16833667334669 10  C 9.0814963259853 10  9.00467601870407 9.94272623138602  8.93787575150301 9.82817869415807  L 5 3.07560137457045  L 1.06212424849699 9.82817869415807  C 0.995323981295925 9.94272623138602  0.918503674014696 10  0.831663326653307 10  C 0.744822979291917 10  0.668002672010688 9.94272623138602  0.601202404809619 9.82817869415807  L 0.100200400801603 8.96907216494845  C 0.0334001336005345 8.8545246277205  0 8.72279495990836  0 8.57388316151203  C 0 8.42497136311569  0.0334001336005345 8.29324169530355  0.100200400801603 8.1786941580756  L 4.76953907815631 0.171821305841925  C 4.83633934535738 0.0572737686139735  4.91315965263861 0  5 0  C 5.08684034736139 0  5.16366065464262 0.0572737686139735  5.23046092184369 0.171821305841925  L 9.8997995991984 8.1786941580756  Z " fill-rule="nonzero" fill="#333333" stroke="none" transform="matrix(1 0 0 1 876 542 )" />
  </g>
</svg>