<?xml version="1.0" encoding="utf-8"?>
<svg version="1.1" xmlns:xlink="http://www.w3.org/1999/xlink" width="20px" height="30px" xmlns="http://www.w3.org/2000/svg">
  <g transform="matrix(1 0 0 1 -1276 -1900 )">
    <path d="M 8.14630681818182 29.1479190101237  C 8.55823863636364 28.8048368953881  8.76420454545455 28.5095613048369  8.76420454545455 28.2620922384702  C 8.76420454545455 28.1383577052868  8.70265151515152 27.8121484814398  8.57954545454545 27.2834645669291  C 8.45643939393939 26.7547806524185  8.30965909090909 26.1529808773903  8.13920454545455 25.4780652418448  C 7.96875 24.8031496062992  7.87405303030303 24.4150731158605  7.85511363636364 24.3138357705287  C 7.84564393939394 24.2688413948256  7.8219696969697 24.1197975253093  7.78409090909091 23.8667041619798  C 7.74621212121212 23.6136107986502  7.70596590909091 23.4111361079865  7.66335227272727 23.2592800899888  C 7.62073863636364 23.107424071991  7.55681818181818 22.9865016872891  7.47159090909091 22.896512935883  C 7.32954545454545 22.7390326209224  7.08806818181818 22.6602924634421  6.74715909090909 22.6602924634421  C 6.52935606060606 22.6602924634421  6.19791666666667 22.6912260967379  5.75284090909091 22.7530933633296  C 5.30776515151515 22.8149606299213  4.97159090909091 22.8458942632171  4.74431818181818 22.8458942632171  C 4.42234848484849 22.8458942632171  4.19981060606061 22.7840269966254  4.07670454545455 22.6602924634421  C 4.01988636363636 22.6040494938133  3.96780303030303 22.5168728908886  3.92045454545455 22.3987626546682  C 3.87310606060606 22.2806524184477  3.8375946969697 22.1681664791901  3.81392045454545 22.0613048368954  C 3.79024621212121 21.9544431946007  3.7594696969697 21.8194600674916  3.72159090909091 21.6563554555681  C 3.68371212121212 21.4932508436445  3.66003787878788 21.3892013498313  3.65056818181818 21.3442069741282  C 3.30018939393939 19.904386951631  3.125 18.4701912260967  3.125 17.0416197975253  C 3.125 15.6130483689539  3.30018939393939 14.1788526434196  3.65056818181818 12.7390326209224  C 3.66003787878788 12.6940382452193  3.68371212121212 12.5899887514061  3.72159090909091 12.4268841394826  C 3.7594696969697 12.2637795275591  3.79024621212121 12.1287964004499  3.81392045454545 12.0219347581552  C 3.8375946969697 11.9150731158605  3.87310606060606 11.8025871766029  3.92045454545455 11.6844769403825  C 3.96780303030303 11.566366704162  4.01988636363636 11.4791901012373  4.07670454545455 11.4229471316085  C 4.19981060606061 11.2992125984252  4.42234848484849 11.2373453318335  4.74431818181818 11.2373453318335  C 4.97159090909091 11.2373453318335  5.30776515151515 11.2682789651294  5.75284090909091 11.330146231721  C 6.19791666666667 11.3920134983127  6.52935606060606 11.4229471316085  6.74715909090909 11.4229471316085  C 7.08806818181818 11.4229471316085  7.32954545454545 11.3442069741282  7.47159090909091 11.1867266591676  C 7.55681818181818 11.0967379077615  7.62073863636364 10.9758155230596  7.66335227272727 10.8239595050619  C 7.70596590909091 10.6721034870641  7.74621212121212 10.4696287964005  7.78409090909091 10.2165354330709  C 7.8219696969697 9.96344206974128  7.84564393939394 9.81439820022497  7.85511363636364 9.76940382452194  C 7.87405303030303 9.6681664791901  7.96875 9.28008998875141  8.13920454545455 8.60517435320585  C 8.30965909090909 7.93025871766029  8.45643939393939 7.32845894263217  8.57954545454545 6.79977502812148  C 8.70265151515152 6.27109111361079  8.76420454545455 5.94488188976378  8.76420454545455 5.82114735658043  C 8.76420454545455 5.57367829021372  8.55823863636364 5.27840269966254  8.14630681818182 4.93532058492688  C 7.734375 4.59223847019122  7.37689393939394 4.35320584926884  7.07386363636364 4.21822272215973  C 6.8844696969697 4.12823397075365  6.67140151515151 4.08323959505062  6.43465909090909 4.08323959505062  C 6.11268939393939 4.08323959505062  5.64867424242424 4.18447694038245  5.04261363636364 4.38695163104612  C 4.50284090909091 4.57817772778403  4.04592803030303 4.80596175478065  3.671875 5.070303712036  C 3.29782196969697 5.33464566929133  2.96164772727273 5.70584926884139  2.66335227272727 6.18391451068616  C 2.36505681818182 6.66197975253093  2.14725378787879 7.05568053993251  2.00994318181818 7.36501687289089  C 1.87263257575758 7.67435320584927  1.65719696969697 8.20584926884139  1.36363636363636 8.95950506186727  C 1.30681818181818 9.09448818897638  1.26420454545455 9.20134983127109  1.23579545454545 9.28008998875141  C 0.771780303030303 10.4836895388076  0.449810606060606 11.6985376827896  0.269886363636364 12.9246344206974  C 0.0899621212121212 14.1507311586052  0 15.5230596175478  0 17.0416197975253  C 0 18.5601799775028  0.0899621212121212 19.9325084364454  0.269886363636364 21.1586051743532  C 0.449810606060606 22.384701912261  0.771780303030303 23.599550056243  1.23579545454545 24.8031496062992  C 1.76609848484849 26.1754780652418  2.15909090909091 27.0809898762655  2.41477272727273 27.5196850393701  C 3.01136363636364 28.5433070866142  3.85890151515152 29.2575928008999  4.95738636363636 29.6625421822272  L 5.04261363636364 29.6962879640045  C 5.64867424242424 29.8987626546682  6.11268939393939 30  6.43465909090909 30  C 6.67140151515151 30  6.8844696969697 29.955005624297  7.07386363636364 29.8650168728909  C 7.37689393939394 29.7300337457818  7.734375 29.4910011248594  8.14630681818182 29.1479190101237  Z M 11.6619318181818 12.5365579302587  C 11.4630681818182 12.7502812148481  11.25 12.8571428571429  11.0227272727273 12.8571428571429  C 10.7765151515152 12.8571428571429  10.563446969697 12.7502812148481  10.3835227272727 12.5365579302587  C 10.2035984848485 12.3228346456693  10.1136363636364 12.0669291338583  10.1136363636364 11.7688413948256  C 10.1136363636364 11.470753655793  10.2035984848485 11.214848143982  10.3835227272727 11.0011248593926  C 10.7339015151515 10.5849268841395  10.9090909090909 10.0787401574803  10.9090909090909 9.48256467941507  C 10.9090909090909 8.89763779527559  10.7339015151515 8.38582677165354  10.3835227272727 7.94713160854893  C 10.2035984848485 7.73340832395951  10.1136363636364 7.48031496062992  10.1136363636364 7.18785151856018  C 10.1136363636364 6.89538807649044  10.2035984848485 6.64229471316085  10.3835227272727 6.42857142857143  C 10.563446969697 6.214848143982  10.7765151515152 6.10798650168729  11.0227272727273 6.10798650168729  C 11.2689393939394 6.10798650168729  11.4820075757576 6.214848143982  11.6619318181818 6.42857142857143  C 12.3721590909091 7.27221597300337  12.7272727272727 8.29021372328459  12.7272727272727 9.48256467941507  C 12.7272727272727 10.6749156355456  12.3721590909091 11.6929133858268  11.6619318181818 12.5365579302587  Z M 14.2329545454545 15.5905511811024  C 14.0625 15.8042744656918  13.8494318181818 15.9111361079865  13.59375 15.9111361079865  C 13.3380681818182 15.9111361079865  13.125 15.8042744656918  12.9545454545455 15.5905511811024  C 12.7746212121212 15.3768278965129  12.6846590909091 15.1237345331834  12.6846590909091 14.8312710911136  C 12.6846590909091 14.5388076490439  12.7746212121212 14.2857142857143  12.9545454545455 14.0719910011249  C 14.0151515151515 12.7896512935883  14.5454545454545 11.259842519685  14.5454545454545 9.48256467941507  C 14.5454545454545 7.7052868391451  14.0151515151515 6.17547806524185  12.9545454545455 4.89313835770529  C 12.7746212121212 4.67941507311586  12.6846590909091 4.42632170978628  12.6846590909091 4.13385826771654  C 12.6846590909091 3.84139482564679  12.7746212121212 3.58830146231721  12.9545454545455 3.37457817772778  C 13.1344696969697 3.16085489313835  13.3475378787879 3.05399325084364  13.59375 3.05399325084364  C 13.8399621212121 3.05399325084364  14.0530303030303 3.16085489313835  14.2329545454545 3.37457817772778  C 15.6534090909091 5.06186726659168  16.3636363636364 7.0978627671541  16.3636363636364 9.48256467941507  C 16.3636363636364 11.867266591676  15.6534090909091 13.9032620922385  14.2329545454545 15.5905511811024  Z M 16.8039772727273 18.644544431946  C 16.6335227272727 18.8582677165354  16.4204545454545 18.9651293588301  16.1647727272727 18.9651293588301  C 15.9090909090909 18.9651293588301  15.6960227272727 18.8582677165354  15.5255681818182 18.644544431946  C 15.3456439393939 18.4308211473566  15.2556818181818 18.177727784027  15.2556818181818 17.8852643419573  C 15.2556818181818 17.5928008998875  15.3456439393939 17.3397075365579  15.5255681818182 17.1259842519685  C 16.3778409090909 16.1023622047244  17.0336174242424 14.9325084364454  17.4928977272727 13.6164229471316  C 17.952178030303 12.3003374578178  18.1818181818182 10.9223847019123  18.1818181818182 9.48256467941507  C 18.1818181818182 8.04274465691788  17.952178030303 6.66479190101237  17.4928977272727 5.34870641169854  C 17.0336174242424 4.0326209223847  16.3778409090909 2.86276715410574  15.5255681818182 1.83914510686164  C 15.3456439393939 1.62542182227222  15.2556818181818 1.37232845894263  15.2556818181818 1.07986501687289  C 15.2556818181818 0.787401574803147  15.3456439393939 0.534308211473564  15.5255681818182 0.32058492688414  C 15.7054924242424 0.106861642294712  15.9185606060606 0  16.1647727272727 0  C 16.4109848484849 0  16.624053030303 0.106861642294712  16.8039772727273 0.32058492688414  C 17.8361742424242 1.5466816647919  18.6268939393939 2.94713160854893  19.1761363636364 4.52193475815523  C 19.7253787878788 6.09673790776153  20 7.75028121484814  20 9.48256467941507  C 20 11.214848143982  19.7253787878788 12.8683914510686  19.1761363636364 14.4431946006749  C 18.6268939393939 16.0179977502812  17.8361742424242 17.4184476940382  16.8039772727273 18.644544431946  Z " fill-rule="nonzero" fill="#000000" stroke="none" transform="matrix(1 0 0 1 1276 1900 )" />
  </g>
</svg>