<?xml version="1.0" encoding="utf-8"?>
<svg version="1.1" xmlns:xlink="http://www.w3.org/1999/xlink" width="35px" height="25px" xmlns="http://www.w3.org/2000/svg">
  <g transform="matrix(1 0 0 1 -1372 -300 )">
    <path d="M 10.6458333333333 5.078125  C 11.3263888888889 5.68576388888889  11.6666666666667 6.42361111111111  11.6666666666667 7.29166666666667  C 11.6666666666667 8.15972222222222  11.3263888888889 8.89756944444444  10.6458333333333 9.50520833333333  C 9.96527777777778 10.1128472222222  9.13888888888889 10.4166666666667  8.16666666666667 10.4166666666667  C 7.19444444444445 10.4166666666667  6.36805555555556 10.1128472222222  5.6875 9.50520833333333  C 5.00694444444445 8.89756944444444  4.66666666666667 8.15972222222222  4.66666666666667 7.29166666666667  C 4.66666666666667 6.42361111111111  5.00694444444445 5.68576388888889  5.6875 5.078125  C 6.36805555555556 4.47048611111111  7.19444444444445 4.16666666666667  8.16666666666667 4.16666666666667  C 9.13888888888889 4.16666666666667  9.96527777777778 4.47048611111111  10.6458333333333 5.078125  Z M 22.75 6.77083333333333  L 30.3333333333333 13.5416666666667  L 30.3333333333333 20.8333333333333  L 4.66666666666667 20.8333333333333  L 4.66666666666667 17.7083333333333  L 10.5 12.5  L 13.4166666666667 15.1041666666667  L 22.75 6.77083333333333  Z M 32.4934895833333 2.23795572916667  C 32.3780381944445 2.13487413194444  32.2413194444445 2.08333333333333  32.0833333333333 2  L 2.91666666666667 2  C 2.75868055555556 2.08333333333333  2.62196180555556 2.13487413194444  2.50651041666667 2.23795572916667  C 2.39105902777778 2.34103732638889  2.33333333333333 2.46310763888889  3 2.60416666666667  L 3 22.3958333333333  C 2.33333333333333 22.5368923611111  2.39105902777778 22.6589626736111  2.50651041666667 22.7620442708333  C 2.62196180555556 22.8651258680556  2.75868055555556 22.9166666666667  2.91666666666667 23  L 32.0833333333333 23  C 32.2413194444445 22.9166666666667  32.3780381944445 22.8651258680556  32.4934895833333 22.7620442708333  C 32.6089409722222 22.6589626736111  32.6666666666667 22.5368923611111  32 22.3958333333333  L 32 2.60416666666667  C 32.6666666666667 2.46310763888889  32.6089409722222 2.34103732638889  32.4934895833333 2.23795572916667  Z M 34.1432291666667 0.764973958333334  C 34.7144097222222 1.27495659722222  35 1.88802083333333  35 2.60416666666667  L 35 22.3958333333333  C 35 23.1119791666667  34.7144097222222 23.7250434027778  34.1432291666667 24.2350260416667  C 33.5720486111111 24.7450086805556  32.8854166666667 25  32.0833333333333 25  L 2.91666666666667 25  C 2.11458333333333 25  1.42795138888889 24.7450086805556  0.856770833333333 24.2350260416667  C 0.285590277777778 23.7250434027778  0 23.1119791666667  0 22.3958333333333  L 0 2.60416666666667  C 0 1.88802083333333  0.285590277777778 1.27495659722222  0.856770833333333 0.764973958333334  C 1.42795138888889 0.254991319444442  2.11458333333333 0  2.91666666666667 0  L 32.0833333333333 0  C 32.8854166666667 0  33.5720486111111 0.254991319444442  34.1432291666667 0.764973958333334  Z " fill-rule="nonzero" fill="#000000" stroke="none" transform="matrix(1 0 0 1 1372 300 )" />
  </g>
</svg>